<svg xmlns="http://www.w3.org/2000/svg" viewBox="0 0 64 64" width="64" height="64">
  <rect width="64" height="64" rx="14" fill="#0F4C81"/>
  <g fill="#FFFFFF">
    <circle cx="28" cy="14" r="5"/>
    <path d="M24 22c-2.2 0-4 1.8-4 4v12c0 1.7 1.3 3 3 3h9l6 9c.6.9 1.8 1.2 2.7.6.9-.6 1.2-1.8.6-2.7l-6.6-9.9c-.6-.8-1.5-1.3-2.5-1.3H27v-4h8c1.1 0 2-.9 2-2s-.9-2-2-2h-8v-1c0-1.9-1.2-3.3-3-3.3z"/>
    <path d="M26 40a10 10 0 1 0 9.6 12.8 2 2 0 0 0-3.8-1.1A6 6 0 1 1 25 44.1a2 2 0 1 0 .9-3.9c-.3 0-.6-.1-.9-.1z"/>
  </g>
</svg>
